<svg width="115" height="178" viewBox="0 0 115 178" fill="none" xmlns="http://www.w3.org/2000/svg">
<path d="M92.477 54.7814H104.113V42.081H92.511V54.7814H92.477ZM10.6161 54.7814H22.048V42.081H10.6161V54.7814ZM10.6161 120.005V118.387H22.048V105.79H10.6161V119.557C10.6161 119.695 10.6161 119.833 10.6161 120.005ZM99.3498 140.277L88.9726 134.22C87.3735 137.489 85.298 140.484 82.8143 143.065L91.4563 151.808C94.6205 148.4 97.3084 144.511 99.3498 140.277ZM92.6471 102.52H104.113V89.8885H92.6812V102.52H92.6471ZM92.6471 86.5843H104.113V73.9526H92.6812V86.5843H92.6471ZM92.6471 70.6828H104.113V58.0512H92.6812V70.6828H92.6471ZM75.6693 54.7814H89.2448V42.081H75.6693V54.7814ZM58.8616 54.7814H72.4371V42.081H58.8616V54.7814ZM42.088 54.7814H55.6634V42.081H42.088V54.7814ZM25.2803 54.7814H38.8557V42.081H25.2803V54.7814ZM22.048 58.0512H10.6161V70.6828H22.048V58.0512ZM22.048 73.9526H10.6161V86.5843H22.048V73.9526ZM22.048 89.8885H10.6161V102.52H22.048V89.8885ZM90.3335 131.122L100.711 137.18C102.616 132.361 103.773 127.164 104.045 121.726H92.511C92.2048 125.03 91.4563 128.162 90.3335 131.122ZM25.2803 118.387C25.2803 127.061 28.6826 134.942 34.1605 140.759L35.8957 139.004V121.416C33.7862 123.378 30.8942 124.617 28.0362 124.617V121.347C31.6087 121.347 35.5214 118.559 35.8957 115.048V112.501C33.9563 114.291 31.3705 115.461 28.7507 115.668V112.398C32.119 112.054 35.5554 109.404 35.8957 106.1V103.587C34.1605 105.205 31.8809 106.306 29.5332 106.65V103.312C32.5954 102.692 35.5554 100.214 35.8957 97.1852V94.6726C34.3646 96.0838 32.3912 97.1508 30.3498 97.5982V94.2252C33.1057 93.3647 35.5895 91.0587 35.8957 88.3052V85.7926C34.5687 87.0317 32.9016 87.9954 31.1664 88.5117V85.0354C33.7522 83.934 35.9297 81.5591 35.9297 78.8401H39.1619C39.1619 81.5591 41.3054 83.934 43.9253 85.0354V88.5117C42.156 87.9954 40.5229 87.0317 39.196 85.7926V88.374C39.5362 91.0931 41.9859 93.3647 44.7418 94.2252V97.5982C42.7004 97.1508 40.7611 96.1182 39.196 94.6726V97.254C39.5702 100.248 42.4963 102.692 45.5584 103.312V106.65C43.2107 106.306 40.9652 105.205 39.196 103.587V106.168C39.6042 109.404 43.0406 112.02 46.3409 112.329V115.599C43.7211 115.427 41.1353 114.257 39.196 112.433V115.117C39.6723 118.559 43.551 121.278 47.0554 121.278V124.548C44.1974 124.548 41.3054 123.343 39.196 121.382V135.596L55.6294 118.972V107.821C53.5199 109.782 50.6279 111.021 47.7699 111.021V107.752C51.3084 107.752 55.2551 104.964 55.6294 101.453V98.9061C53.69 100.696 51.1042 101.866 48.4844 102.073V98.8029C51.8528 98.4587 55.2892 95.8085 55.6294 92.5387V90.0605C53.8942 91.6782 51.6146 92.7796 49.267 93.1238V89.7852C52.3291 89.1657 55.2551 86.6875 55.6294 83.6587V81.1117C54.0983 82.5229 52.125 83.5554 50.0835 84.0373V80.6643C52.8394 79.8038 55.3232 77.4977 55.6294 74.7443V72.2317C54.3025 73.4708 52.6353 74.4345 50.9001 74.9508V71.4745C53.4859 70.3731 55.6634 67.9982 55.6634 65.2791H58.8957C58.8957 67.9982 61.0392 70.3731 63.659 71.4745V74.9508C61.8897 74.4345 60.2566 73.4708 58.9297 72.2317V74.7787C59.2699 77.4977 61.7196 79.8038 64.4755 80.6643V84.0373C62.4341 83.5898 60.4948 82.5573 58.9297 81.1117V83.6931C59.3039 86.6875 62.23 89.1312 65.2921 89.7508V93.0894C62.9445 92.7452 60.6989 91.6438 58.9297 90.0261V92.6075C59.338 95.8773 62.7744 98.4587 66.0747 98.8029V102.073C63.4548 101.901 60.869 100.73 58.9297 98.9061V101.591C59.406 105.033 63.2847 107.752 66.7892 107.752V111.021C63.9312 111.021 61.0392 109.817 58.9297 107.855V119.007L75.4312 135.7V121.45C73.3217 123.412 70.4297 124.617 67.5717 124.617V121.347C71.1102 121.347 75.0229 118.594 75.4312 115.083V112.501C73.4918 114.291 70.906 115.461 68.2862 115.668V112.398C71.6205 112.054 75.0569 109.438 75.4312 106.203V103.587C73.696 105.205 71.4164 106.306 69.0687 106.65V103.312C72.1309 102.692 75.0569 100.214 75.4312 97.2196V94.6726C73.9001 96.0838 71.9267 97.1164 69.8853 97.5982V94.2252C72.6412 93.3647 75.0909 91.0931 75.4312 88.3396V85.7926C74.1042 87.0317 72.4711 87.961 70.7019 88.5117V85.0354C73.2877 83.934 75.4652 81.5591 75.4652 78.8401H78.6974C78.6974 81.5591 80.8409 83.934 83.4607 85.0354V88.5117C81.6915 87.9954 80.0584 87.0317 78.7315 85.7926V88.3396C79.0377 91.0931 81.5214 93.3647 84.2773 94.2252V97.5982C82.2359 97.1508 80.2625 96.1182 78.7315 94.6726V97.2196C79.1057 100.214 82.0318 102.692 85.0939 103.312V106.65C82.7463 106.306 80.4667 105.205 78.7315 103.587V106.1C79.1057 109.369 82.5421 112.02 85.8764 112.364V115.634C83.2566 115.461 80.6708 114.291 78.7315 112.467V115.117C79.2078 118.594 83.0865 121.313 86.5909 121.313V124.582C83.7329 124.582 80.8409 123.343 78.7315 121.416V139.038L80.4326 140.759C85.9445 134.942 89.3128 127.061 89.3128 118.387V58.0512H25.1782L25.2803 118.387ZM24.3616 131.122C23.2389 128.162 22.4903 125.03 22.1841 121.726H10.6501C10.8883 127.164 12.0451 132.361 13.9844 137.18L24.3616 131.122ZM31.8809 143.065C29.3971 140.449 27.3217 137.489 25.7226 134.22L15.3454 140.277C17.3868 144.511 20.0747 148.4 23.2389 151.808L31.8809 143.065ZM42.4282 150.741C39.4681 149.329 36.7463 147.54 34.2966 145.406L25.5865 154.217C29.0229 157.452 32.9696 160.171 37.2566 162.236L42.4282 150.741ZM55.6634 154.045C52.125 153.873 48.6886 153.184 45.4903 152.014L40.2847 163.579C45.0821 165.472 50.2537 166.608 55.6634 166.814V154.045ZM69.2048 152.014C66.0066 153.184 62.5702 153.873 58.9977 154.045V166.814C64.4075 166.642 69.6131 165.506 74.4105 163.579L69.2048 152.014ZM80.3986 145.406C77.9489 147.54 75.227 149.329 72.267 150.741L77.4386 162.236C81.7255 160.171 85.6723 157.452 89.1087 154.217L80.3986 145.406ZM92.6471 105.79V118.387H104.079V120.9C104.079 120.452 104.113 120.005 104.113 119.557V105.79H92.6471ZM107.311 119.557C107.311 147.436 84.8897 170.118 57.3306 170.118C29.7714 170.118 7.34982 147.436 7.34982 119.557V38.7768H107.345L107.311 119.557Z" fill="#F9F4E9"/>
<path d="M57.5 178C25.7899 178 2.98023e-06 152.083 2.98023e-06 120.211V31.3422H21.9453V34.7152H3.33432V120.246C3.33432 150.259 27.6272 174.661 57.5 174.661C87.3728 174.661 111.666 150.224 111.666 120.211V34.7152H92.5444V31.3422H115V120.211C115 152.083 89.2101 178 57.5 178Z" fill="#F9F4E9"/>
<path d="M25.3476 25.0781H89.278V28.4856H25.3476V25.0781Z" fill="#F9F4E9"/>
<path d="M87.5287 5.81629L90.5359 8.85847L87.5287 11.9006L84.5214 8.85847L87.5287 5.81629Z" fill="#F9F4E9"/>
<path d="M72.4265 2.96186L75.4098 5.9797L72.4265 8.99754L69.4433 5.9797L72.4265 2.96186Z" fill="#F9F4E9"/>
<path d="M57.3261 0L60.3089 3.01826L57.3253 6.03568L54.3425 3.01741L57.3261 0Z" fill="#F9F4E9"/>
<path d="M27.1973 5.88289L30.1805 8.90073L27.1973 11.9186L24.2141 8.90073L27.1973 5.88289Z" fill="#F9F4E9"/>
<path d="M42.1938 2.96571L45.177 5.98354L42.1938 9.00138L39.2106 5.98355L42.1938 2.96571Z" fill="#F9F4E9"/>
<path d="M25.3476 31.3422H89.278V34.7496H25.3476V31.3422Z" fill="#F9F4E9"/>
<path d="M85.8082 13.6854H89.2105V13.9264C89.2105 19.0892 85.0596 23.2882 79.9561 23.2882C76.8259 23.2882 74.07 21.705 72.4028 19.3301C70.7357 21.7394 67.9798 23.2882 64.8496 23.2882C61.7194 23.2882 58.9635 21.705 57.2963 19.3301C55.6292 21.7394 52.8732 23.2882 49.7431 23.2882C46.6129 23.2882 43.857 21.705 42.1898 19.3301C40.5226 21.7394 37.7667 23.2882 34.6365 23.2882C29.533 23.2882 25.3821 19.0892 25.3821 13.9264V13.6854H28.7845V13.9264C28.7845 17.1961 31.4043 19.8464 34.6365 19.8464C37.8688 19.8464 40.4886 17.1961 40.4886 13.9264V10.7254H43.891V13.892C43.891 17.1617 46.5108 19.812 49.7431 19.812C52.9753 19.812 55.5951 17.1617 55.5951 13.892V7.79986H58.9975V13.9264C58.9975 17.1961 61.6173 19.8464 64.8496 19.8464C68.0818 19.8464 70.7016 17.1961 70.7016 13.9264V10.7254H74.104V13.9264C74.104 17.1961 76.7238 19.8464 79.9561 19.8464C83.1883 19.8464 85.8082 17.1961 85.8082 13.9264V13.6854Z" fill="#F9F4E9"/>
</svg>
