<?xml version="1.0" encoding="utf-8"?>
<!-- Generator: Adobe Illustrator 28.2.0, SVG Export Plug-In . SVG Version: 6.00 Build 0)  -->
<svg version="1.1" id="Layer_1" xmlns="http://www.w3.org/2000/svg" xmlns:xlink="http://www.w3.org/1999/xlink" x="0px" y="0px"
	 viewBox="0 0 48 46" style="enable-background:new 0 0 48 46;" xml:space="preserve">
<style type="text/css">
	.st0{fill:#F7A82A;}
</style>
<path class="st0" d="M33,14.2h3v-3.3h-3L33,14.2L33,14.2z M11.9,14.2h3v-3.3h-3V14.2z M11.9,31v-0.4h3v-3.3h-3v3.6
	C11.9,30.9,11.9,31,11.9,31z M34.8,36.3l-2.7-1.6c-0.4,0.8-0.9,1.6-1.6,2.3l2.2,2.3C33.6,38.4,34.3,37.3,34.8,36.3z M33.1,26.5h3
	v-3.3h-3L33.1,26.5L33.1,26.5z M33.1,22.4h3v-3.3h-3L33.1,22.4L33.1,22.4z M33.1,18.3h3V15h-3L33.1,18.3L33.1,18.3z M28.7,14.2h3.5
	v-3.3h-3.5V14.2z M24.4,14.2h3.5v-3.3h-3.5V14.2z M20,14.2h3.5v-3.3H20V14.2z M15.7,14.2h3.5v-3.3h-3.5V14.2z M14.8,15h-3v3.3h3V15z
	 M14.8,19.1h-3v3.3h3V19.1z M14.8,23.2h-3v3.3h3V23.2z M32.5,33.9l2.7,1.6c0.5-1.2,0.8-2.6,0.9-4h-3C33,32.3,32.8,33.1,32.5,33.9z
	 M15.7,30.6c0,2.2,0.9,4.3,2.3,5.8l0.4-0.5v-4.5c-0.5,0.5-1.3,0.8-2,0.8v-0.8c0.9,0,1.9-0.7,2-1.6v-0.7c-0.5,0.5-1.2,0.8-1.8,0.8V29
	c0.9-0.1,1.8-0.8,1.8-1.6v-0.6c-0.4,0.4-1,0.7-1.6,0.8v-0.9c0.8-0.2,1.6-0.8,1.6-1.6v-0.6c-0.4,0.4-0.9,0.6-1.4,0.8v-0.9
	c0.7-0.2,1.4-0.8,1.4-1.5v-0.6c-0.3,0.3-0.8,0.6-1.2,0.7V22c0.7-0.3,1.2-0.9,1.2-1.6h0.8c0,0.7,0.6,1.3,1.2,1.6v0.9
	c-0.5-0.1-0.9-0.4-1.2-0.7v0.7c0.1,0.7,0.7,1.3,1.4,1.5v0.9c-0.5-0.1-1-0.4-1.4-0.8v0.7c0.1,0.8,0.9,1.4,1.6,1.6v0.9
	c-0.6-0.1-1.2-0.4-1.6-0.8v0.7c0.1,0.8,1,1.5,1.8,1.6v0.8c-0.7,0-1.3-0.3-1.8-0.8v0.7c0.1,0.9,1.1,1.6,2,1.6v0.8
	c-0.7,0-1.5-0.3-2-0.8V35l4.2-4.3v-2.9c-0.5,0.5-1.3,0.8-2,0.8v-0.8c0.9,0,1.9-0.7,2-1.6v-0.7c-0.5,0.5-1.2,0.8-1.8,0.8v-0.8
	c0.9-0.1,1.8-0.8,1.8-1.6v-0.6c-0.4,0.4-1,0.7-1.6,0.8v-0.9c0.8-0.2,1.5-0.8,1.6-1.6V21c-0.4,0.4-0.9,0.6-1.4,0.8v-0.9
	c0.7-0.2,1.4-0.8,1.4-1.5v-0.6c-0.3,0.3-0.8,0.6-1.2,0.7v-0.9c0.7-0.3,1.2-0.9,1.2-1.6h0.8c0,0.7,0.6,1.3,1.2,1.6v0.9
	c-0.5-0.1-0.9-0.4-1.2-0.7v0.7c0.1,0.7,0.7,1.3,1.4,1.5v0.9c-0.5-0.1-1-0.4-1.4-0.8v0.7c0.1,0.8,0.9,1.4,1.6,1.6v0.9
	c-0.6-0.1-1.2-0.4-1.6-0.8v0.7c0.1,0.8,1,1.5,1.8,1.6v0.8c-0.7,0-1.3-0.3-1.8-0.8v0.7c0.1,0.9,1.1,1.6,2,1.6v0.8
	c-0.7,0-1.5-0.3-2-0.8v2.9l4.3,4.3v-3.7c-0.5,0.5-1.3,0.8-2,0.8v-0.8c0.9,0,1.9-0.7,2-1.6v-0.7c-0.5,0.5-1.2,0.8-1.8,0.8V29
	c0.9-0.1,1.7-0.8,1.8-1.6v-0.7c-0.4,0.4-1,0.7-1.6,0.8v-0.9c0.8-0.2,1.5-0.8,1.6-1.6v-0.7c-0.4,0.4-0.9,0.6-1.4,0.8v-0.9
	c0.7-0.2,1.3-0.8,1.4-1.5v-0.7c-0.3,0.3-0.8,0.6-1.2,0.7V22c0.7-0.3,1.2-0.9,1.2-1.6h0.8c0,0.7,0.6,1.3,1.2,1.6v0.9
	c-0.5-0.1-0.9-0.4-1.2-0.7v0.7c0.1,0.7,0.7,1.3,1.4,1.5v0.9c-0.5-0.1-1-0.4-1.4-0.8v0.7c0.1,0.8,0.9,1.4,1.6,1.6v0.9
	c-0.6-0.1-1.2-0.4-1.6-0.8v0.6c0.1,0.8,1,1.5,1.8,1.6v0.8c-0.7,0-1.3-0.3-1.8-0.8v0.7c0.1,0.9,1.1,1.6,2,1.6v0.8
	c-0.7,0-1.5-0.3-2-0.8v4.6l0.4,0.4c1.4-1.5,2.3-3.5,2.3-5.8V15H15.6L15.7,30.6z M15.4,33.9c-0.3-0.8-0.5-1.6-0.6-2.4h-3
	c0.1,1.4,0.4,2.7,0.9,4L15.4,33.9z M17.4,37c-0.6-0.7-1.2-1.4-1.6-2.3l-2.7,1.6c0.5,1.1,1.2,2.1,2,3L17.4,37z M20.1,39
	c-0.8-0.4-1.5-0.8-2.1-1.4l-2.3,2.3c0.9,0.8,1.9,1.5,3,2.1L20.1,39z M23.5,39.8c-0.9,0-1.8-0.2-2.6-0.5l-1.3,3
	c1.2,0.5,2.6,0.8,4,0.8V39.8z M27,39.3c-0.8,0.3-1.7,0.5-2.6,0.5v3.3c1.4,0,2.7-0.3,4-0.8L27,39.3z M29.9,37.6
	c-0.6,0.6-1.3,1-2.1,1.4l1.3,3c1.1-0.5,2.1-1.2,3-2.1L29.9,37.6z M33.1,27.3v3.3h3v0.6c0-0.1,0-0.2,0-0.3v-3.6H33.1z M36.9,30.9
	C36.9,38.1,31.1,44,24,44C16.8,44,11,38.1,11,30.9V10h25.8L36.9,30.9z"/>
<path class="st0" d="M24,46c-8.2,0-14.9-6.7-14.9-14.9v-23h5.7V9H10v22.1c0,7.8,6.3,14.1,14,14.1s14-6.3,14-14.1V9h-4.9V8.1h5.8v23
	C38.9,39.3,32.2,46,24,46z"/>
<path class="st0" d="M15.7,6.5h16.5v0.9H15.7V6.5z"/>
<path class="st0" d="M31.8,1.5l0.8,0.8l-0.8,0.8L31,2.3L31.8,1.5z"/>
<path class="st0" d="M27.9,0.8l0.8,0.8l-0.8,0.8l-0.8-0.8L27.9,0.8z"/>
<path class="st0" d="M24,0l0.8,0.8L24,1.6l-0.8-0.8L24,0z"/>
<path class="st0" d="M16.2,1.5l0.8,0.8l-0.8,0.8l-0.8-0.8L16.2,1.5z"/>
<path class="st0" d="M20,0.8l0.8,0.8L20,2.3l-0.8-0.8L20,0.8z"/>
<path class="st0" d="M15.7,8.1h16.5V9H15.7V8.1z"/>
<path class="st0" d="M31.3,3.5h0.9v0.1c0,1.3-1.1,2.4-2.4,2.4c-0.8,0-1.5-0.4-2-1c-0.4,0.6-1.1,1-2,1s-1.5-0.4-2-1
	c-0.4,0.6-1.1,1-2,1c-0.8,0-1.5-0.4-2-1c-0.4,0.6-1.1,1-2,1c-1.3,0-2.4-1.1-2.4-2.4V3.5h0.9v0.1c0,0.8,0.7,1.5,1.5,1.5
	c0.8,0,1.5-0.7,1.5-1.5V2.8h0.9v0.8c0,0.8,0.7,1.5,1.5,1.5c0.8,0,1.5-0.7,1.5-1.5V2h0.9v1.6c0,0.8,0.7,1.5,1.5,1.5
	c0.8,0,1.5-0.7,1.5-1.5V2.8h0.9v0.8c0,0.8,0.7,1.5,1.5,1.5C30.6,5.1,31.3,4.4,31.3,3.5L31.3,3.5z"/>
</svg>
