<svg width="18" height="18" viewBox="0 0 18 18" fill="none" xmlns="http://www.w3.org/2000/svg">
<g clip-path="url(#clip0_890_6335)">
<path d="M18 9C18 4.02948 13.9705 0 9 0C4.02948 0 0 4.02948 0 9C0 13.2206 2.90592 16.7623 6.82596 17.735V11.7504H4.97016V9H6.82596V7.81488C6.82596 4.75164 8.21232 3.3318 11.2198 3.3318C11.79 3.3318 12.7739 3.44376 13.1764 3.55536V6.04836C12.964 6.02604 12.595 6.01488 12.1367 6.01488C10.661 6.01488 10.0908 6.57396 10.0908 8.02728V9H13.0306L12.5255 11.7504H10.0908V17.9341C14.5472 17.3959 18.0004 13.6015 18.0004 9H18Z" fill="black"/>
<path d="M12.5252 11.7506L13.0302 9.00023H10.0905V8.02751C10.0905 6.57419 10.6607 6.01511 12.1364 6.01511C12.5946 6.01511 12.9636 6.02627 13.176 6.04859V3.55559C12.7736 3.44363 11.7897 3.33203 11.2194 3.33203C8.21201 3.33203 6.82565 4.75187 6.82565 7.81511V9.00023H4.96985V11.7506H6.82565V17.7353C7.52189 17.9081 8.25017 18.0002 8.99969 18.0002C9.36869 18.0002 9.73265 17.9776 10.0901 17.9344V11.7506H12.5248H12.5252Z" fill="#F7A82A"/>
</g>
<defs>
<clipPath id="clip0_890_6335">
<rect width="18" height="18" fill="white"/>
</clipPath>
</defs>
</svg>
