<svg width="18" height="18" viewBox="0 0 18 18" fill="none" xmlns="http://www.w3.org/2000/svg">
<path d="M0 18L1.26525 13.3778C0.484499 12.0247 0.0742498 10.491 0.0749998 8.91825C0.0772498 4.00125 4.07849 0 8.99473 0C11.3805 0.00075 13.62 0.93 15.3045 2.616C16.9882 4.302 17.9152 6.543 17.9145 8.9265C17.9122 13.8443 13.911 17.8455 8.99473 17.8455C7.50223 17.8448 6.03149 17.4705 4.72874 16.7595L0 18ZM4.94774 15.1448C6.20474 15.891 7.40473 16.338 8.99173 16.3387C13.0777 16.3387 16.4062 13.0133 16.4085 8.925C16.41 4.8285 13.0972 1.5075 8.99773 1.506C4.90874 1.506 1.5825 4.8315 1.581 8.919C1.58025 10.5878 2.06925 11.8372 2.89049 13.1445L2.14125 15.8805L4.94774 15.1448ZM13.488 11.0468C13.4325 10.9537 13.284 10.8982 13.0605 10.7865C12.8377 10.6748 11.742 10.1355 11.5372 10.0612C11.3332 9.987 11.1847 9.9495 11.0355 10.173C10.887 10.3958 10.4595 10.8982 10.3297 11.0468C10.2 11.1953 10.0695 11.214 9.84673 11.1023C9.62398 10.9905 8.90548 10.7557 8.05423 9.996C7.39198 9.405 6.94423 8.67525 6.81448 8.45175C6.68473 8.229 6.80098 8.10825 6.91198 7.99725C7.01248 7.8975 7.13473 7.737 7.24648 7.6065C7.35973 7.4775 7.39648 7.3845 7.47148 7.23525C7.54573 7.08675 7.50898 6.95625 7.45273 6.8445C7.39648 6.7335 6.95098 5.63625 6.76573 5.19C6.58424 4.75575 6.40049 4.81425 6.26399 4.8075L5.83649 4.8C5.68799 4.8 5.44649 4.8555 5.24249 5.079C5.03849 5.3025 4.46249 5.841 4.46249 6.93825C4.46249 8.0355 5.26124 9.09525 5.37224 9.24375C5.48399 9.39225 6.94348 11.6438 9.17923 12.609C9.71098 12.8385 10.1265 12.9757 10.4497 13.0785C10.9837 13.248 11.4697 13.224 11.8537 13.167C12.282 13.1032 13.1722 12.6277 13.3582 12.1073C13.5442 11.586 13.5442 11.1398 13.488 11.0468Z" fill="#F9F4E9"/>
</svg>
